:SAMPLES-PER-SECOND 30
:FULLY-SPECIFIED
:DEGREES
1399
root  4.08381 40.0377 2.90792 -93.4788 -79.4239 89.4073
RightUpLeg  -5.1433 -4.76959 -24.0327
RightLeg  18.9319 -7.21623 -2.95106
RightFoot  -4.89307 -0.613666 10.2742
RightToes  -4.65663e-010 0 -3.6325e-017
Spine  3.82382 -4.69684 19.2327
Spine1  9.81193 -7.58151 9.54003
HEad  12.7924 14.0253 -0.206356
LeftShoulder1  8.72736 -12.8824 -46.4612
LeftArm  11.1317 17.9989 -37.0673
LeftForeArm  24.2653 -28.7253 -4.8905
LeftHand  -0.244104 0.0205437 5.32207
RightShoulder  3.28358 5.80383 29.2965
RightArm  -10.5837 -5.21303 18.0423
RightForeArm  -0.014947 18.096 5.12062
RightHand  -0.65849 0.705827 -12.6256
LeftUpLeg  4.085 0.175889 -12.9805
LeftLeg  0.763843 19.3682 -7.66685
LeftFoot  -3.62915 -0.475634 7.37108
LeftToes  4.18335e-011 1.59304e-011 3.38507e-012
1400
root  4.0227 39.9106 3.2511 -95.2217 -78.6663 90.8579
RightUpLeg  -5.45339 -3.51954 -25.3583
RightLeg  19.9882 -7.68248 -3.29438
RightFoot  -5.27515 -0.615608 10.906
RightToes  -4.65663e-010 0 -3.6325e-017
Spine  3.89433 -4.86261 19.5825
Spine1  9.73874 -7.94848 10.2333
HEad  12.8974 14.6863 0.892614
LeftShoulder1  8.77923 -12.9363 -46.5877
LeftArm  11.5466 18.0429 -37.3295
LeftForeArm  24.3158 -28.8114 -4.9074
LeftHand  -0.244104 0.0205437 5.32207
RightShoulder  3.16577 5.60385 28.766
RightArm  -11.452 -4.64095 17.6187
RightForeArm  -1.3774 18.2152 5.14229
RightHand  -0.711986 0.935196 -13.1651
LeftUpLeg  4.32864 -0.14587 -14.2934
LeftLeg  0.907444 20.233 -7.87993
LeftFoot  -4.09212 -0.477332 7.91162
LeftToes  4.18335e-011 1.59304e-011 3.38507e-012
1401
root  3.9433 39.7854 3.57659 -97.7984 -77.9415 93.3008
RightUpLeg  -5.98183 -2.09882 -26.5494
RightLeg  21.0013 -8.14602 -3.64701
RightFoot  -5.60522 -0.613932 11.4539
RightToes  -4.65663e-010 0 -3.6325e-017
Spine  3.63288 -4.88704 20.1289
Spine1  9.93342 -8.15892 10.5803
HEad  13.1145 15.3217 2.08307
LeftShoulder1  8.80617 -13.0107 -46.5186
LeftArm  11.7854 18.2223 -37.7769
LeftForeArm  24.4143 -28.78 -4.89482
LeftHand  -0.244104 0.0205437 5.32207
RightShoulder  3.08754 5.46049 28.4408
RightArm  -11.8541 -4.08152 17.0882
RightForeArm  -2.65108 18.3921 5.17914
RightHand  -0.742537 1.0709 -13.4451
LeftUpLeg  4.40016 -0.42529 -15.5183
LeftLeg  1.04923 21.2518 -8.08548
LeftFoot  -4.57667 -0.464371 8.3088
LeftToes  4.18335e-011 1.59304e-011 3.38507e-012
1402
root  3.86506 39.668 3.8831 -98.9574 -77.284 94.3867
RightUpLeg  -6.40083 -0.926842 -27.6864
RightLeg  21.8643 -8.57031 -3.97695
RightFoot  -5.87909 -0.619052 12.0932
RightToes  -4.65663e-010 0 -3.6325e-017
Spine  3.15308 -4.95631 20.6954
Spine1  10.1399 -8.4489 10.8883
HEad  13.359 15.7852 3.24076
LeftShoulder1  8.83449 -13.1041 -46.4028
LeftArm  12.0734 18.4857 -38.2019
LeftForeArm  24.5671 -28.8211 -4.89586
LeftHand  -0.244104 0.0205437 5.32207
RightShoulder  3.02438 5.32417 28.251
RightArm  -11.9478 -3.44516 16.4877
RightForeArm  -3.242 18.4633 5.20726
RightHand  -0.737873 1.05072 -13.4013
LeftUpLeg  4.39063 -0.712684 -16.6621
LeftLeg  1.25595 22.0197 -8.22731
LeftFoot  -5.00638 -0.452057 8.6973
LeftToes  4.18335e-011 1.59304e-011 3.38507e-012
1403
root  3.79738 39.5572 4.17086 -98.8877 -76.6611 94.1486
RightUpLeg  -6.56931 0.0256849 -28.8259
RightLeg  22.6141 -8.98262 -4.297
RightFoot  -6.11329 -0.629203 12.8163
RightToes  -4.65663e-010 0 -3.6325e-017
Spine  2.75827 -5.08553 21.1077
Spine1  10.1869 -8.83531 11.4277
HEad  13.6081 15.9839 4.18621
LeftShoulder1  8.88505 -13.1783 -46.4627
LeftArm  12.5946 18.7579 -38.4568
LeftForeArm  24.6348 -28.9811 -4.92873
LeftHand  -0.244104 0.0205437 5.32207
RightShoulder  2.93828 5.14434 27.9588
RightArm  -12.0123 -2.78642 16.002
RightForeArm  -3.12626 18.4056 5.21169
RightHand  -0.744071 1.12156 -13.3708
LeftUpLeg  4.5042 -1.01714 -17.7842
LeftLeg  1.43098 22.5333 -8.35279
LeftFoot  -5.32851 -0.451532 9.18865
LeftToes  4.18335e-011 1.59304e-011 3.38507e-012
1404
root  3.7428 39.4486 4.43685 -98.5942 -76.0426 93.6188
RightUpLeg  -6.66274 0.907333 -29.9243
RightLeg  23.3629 -9.40396 -4.63498
RightFoot  -6.32429 -0.63265 13.3961
RightToes  -4.65663e-010 0 -3.6325e-017
Spine  2.5086 -5.19522 21.3967
Spine1  10.103 -9.19339 12.0911
HEad  13.8841 15.9645 4.93545
LeftShoulder1  8.93202 -13.2274 -46.5743
LeftArm  13.2599 19.0276 -38.7053
LeftForeArm  24.6015 -29.0986 -4.95751
LeftHand  -0.244104 0.0205437 5.32207
RightShoulder  2.86364 4.9949 27.6698
RightArm  -12.1574 -2.1834 15.5274
RightForeArm  -2.87654 18.215 5.221
RightHand  -0.786467 1.40475 -13.5541
LeftUpLeg  4.66856 -1.30185 -18.8674
LeftLeg  1.62409 22.9614 -8.48151
LeftFoot  -5.60264 -0.451891 9.66597
LeftToes  4.18335e-011 1.59304e-011 3.38507e-012
1405
root  3.70055 39.3433 4.67944 -98.3846 -75.4701 93.2121
RightUpLeg  -6.81104 1.66129 -30.9197
RightLeg  24.0923 -9.76004 -4.95197
RightFoot  -6.51406 -0.626274 13.7393
RightToes  -4.65663e-010 0 -3.6325e-017
Spine  2.22332 -5.25322 21.7101
Spine1  10.041 -9.46107 12.6009
HEad  14.1179 15.812 5.62509
LeftShoulder1  8.94153 -13.2747 -46.4906
LeftArm  13.8303 19.3007 -39.1144
LeftForeArm  24.608 -29.0799 -4.95288
LeftHand  -0.244104 0.0205437 5.32207
RightShoulder  2.8516 4.96027 27.6646
RightArm  -12.343 -1.64968 14.8544
RightForeArm  -2.9683 17.8836 5.26827
RightHand  -0.831065 1.67492 -13.7845
LeftUpLeg  4.73487 -1.53828 -19.8394
LeftLeg  1.9102 23.3601 -8.5905
LeftFoot  -5.89769 -0.441154 10.001
LeftToes  4.18335e-011 1.59304e-011 3.38507e-012
1406
root  3.66643 39.2465 4.90153 -98.3011 -74.9766 92.9565
RightUpLeg  -6.944 2.21973 -31.8102
RightLeg  24.6942 -9.95931 -5.1768
RightFoot  -6.67693 -0.618428 13.9987
RightToes  -4.65663e-010 0 -3.6325e-017
Spine  1.87948 -5.26562 22.0963
Spine1  10.0695 -9.63817 12.8938
HEad  14.2186 15.5428 6.26958
LeftShoulder1  8.92399 -13.3228 -46.2604
LeftArm  14.1849 19.5679 -39.5644
LeftForeArm  24.7161 -29.0577 -4.94185
LeftHand  -0.244104 0.0205437 5.32207
RightShoulder  2.86415 4.95688 27.8315
RightArm  -12.6217 -1.209 14.2028
RightForeArm  -3.29827 17.503 5.33242
RightHand  -0.840469 1.69679 -13.8959
LeftUpLeg  4.77824 -1.73976 -20.6926
LeftLeg  2.1653 23.7559 -8.69037
LeftFoot  -6.19493 -0.424446 10.2474
LeftToes  4.18335e-011 1.59304e-011 3.38507e-012
1407
root  3.63865 39.1592 5.10308 -98.5335 -74.5504 92.9803
RightUpLeg  -7.02071 2.65667 -32.608
RightLeg  25.1659 -10.008 -5.30389
RightFoot  -6.82133 -0.613322 14.29
RightToes  -4.65663e-010 0 -3.6325e-017
Spine  1.65539 -5.23057 22.4742
Spine1  10.0877 -9.71321 13.1049
HEad  14.2571 15.1719 6.80062
LeftShoulder1  8.91895 -13.3626 -46.1213
LeftArm  14.3751 19.8549 -39.8532
LeftForeArm  24.8661 -29.1506 -4.95494
LeftHand  -0.244104 0.0205437 5.32207
RightShoulder  2.82962 4.85755 27.8191
RightArm  -13.0686 -0.934017 13.9865
RightForeArm  -3.55065 17.2378 5.36171
RightHand  -0.826351 1.53941 -13.9643
LeftUpLeg  4.90141 -1.91974 -21.4544
LeftLeg  2.2889 24.1932 -8.80297
LeftFoot  -6.46252 -0.408037 10.4625
LeftToes  4.18335e-011 1.59304e-011 3.38507e-012
1408
root  3.62216 39.079 5.27757 -99.0536 -74.1941 93.2946
RightUpLeg  -7.12987 3.02314 -33.2821
RightLeg  25.5884 -9.97052 -5.37796
RightFoot  -6.96566 -0.606384 14.5525
RightToes  -4.65663e-010 0 -3.6325e-017
Spine  1.59779 -5.16685 22.7625
Spine1  10.0005 -9.70783 13.3042
HEad  14.3819 14.802 7.27763
LeftShoulder1  8.93864 -13.3986 -46.1247
LeftArm  14.4579 20.199 -39.996
LeftForeArm  25.0112 -29.2377 -4.96698
LeftHand  -0.244104 0.0205437 5.32207
RightShoulder  2.7764 4.73102 27.6893
RightArm  -13.5212 -0.80614 14.0792
RightForeArm  -3.68032 17.1131 5.35808
RightHand  -0.823236 1.44842 -14.0896
LeftUpLeg  4.99559 -2.04717 -22.082
LeftLeg  2.42717 24.624 -8.90438
LeftFoot  -6.73643 -0.385975 10.5782
LeftToes  4.18335e-011 1.59304e-011 3.38507e-012
1409
root  3.62159 39.0087 5.42245 -99.6691 -73.9404 93.7805
RightUpLeg  -7.31907 3.28059 -33.7932
RightLeg  25.9465 -9.86927 -5.40475
RightFoot  -7.09143 -0.597808 14.7286
RightToes  -4.65663e-010 0 -3.6325e-017
Spine  1.57486 -5.12049 22.9498
Spine1  9.87937 -9.69986 13.4595
HEad  14.5697 14.5512 7.82278
LeftShoulder1  8.95465 -13.4256 -46.1341
LeftArm  14.4213 20.5542 -40.1382
LeftForeArm  25.082 -29.17 -4.94755
LeftHand  -0.244104 0.0205437 5.32207
RightShoulder  2.7901 4.73923 27.8248
RightArm  -13.7293 -0.65429 13.9741
RightForeArm  -3.76808 16.9736 5.3717
RightHand  -0.839441 1.53471 -14.1904
LeftUpLeg  4.93706 -2.08776 -22.5105
LeftLeg  2.70348 24.9691 -8.96948
LeftFoot  -7.04404 -0.356277 10.5969
LeftToes  4.18335e-011 1.59304e-011 3.38507e-012
1410
root  3.63395 38.9558 5.54497 -100.456 -73.7947 94.5171
RightUpLeg  -7.54337 3.43875 -34.1472
RightLeg  26.1338 -9.69949 -5.35753
RightFoot  -7.13329 -0.597858 14.8673
RightToes  -4.65663e-010 0 -3.6325e-017
Spine  1.54354 -5.1021 23.0651
Spine1  9.82398 -9.72077 13.5851
HEad  14.67 14.4377 8.38663
LeftShoulder1  8.946 -13.4198 -46.1043
LeftArm  14.3283 20.8315 -40.2945
LeftForeArm  24.9309 -29.0451 -4.92716
LeftHand  -0.244104 0.0205437 5.32207
RightShoulder  2.85745 4.84598 28.2106
RightArm  -13.7371 -0.375295 13.67
RightForeArm  -3.7341 16.7723 5.40541
RightHand  -0.854333 1.68311 -14.1466
LeftUpLeg  4.78589 -2.08024 -22.7703
LeftLeg  2.96324 25.2865 -9.02091
LeftFoot  -7.31613 -0.332135 10.6757
LeftToes  4.18335e-011 1.59304e-011 3.38507e-012
1411
root  3.65342 38.9236 5.65098 -101.575 -73.7189 95.6531
RightUpLeg  -7.79462 3.57018 -34.376
RightLeg  26.1261 -9.4978 -5.25073
RightFoot  -7.06102 -0.612321 15.0125
RightToes  -4.65663e-010 0 -3.6325e-017
Spine  1.58886 -5.07094 23.1241
Spine1  9.77379 -9.71301 13.7466
HEad  14.6769 14.4059 8.81703
LeftShoulder1  8.93141 -13.3895 -46.112
LeftArm  14.3325 21.0374 -40.3833
LeftForeArm  24.5786 -29.0277 -4.94251
LeftHand  -0.244104 0.0205437 5.32207
RightShoulder  2.88308 4.86943 28.4265
RightArm  -13.7639 -0.098278 13.6609
RightForeArm  -3.56704 16.709 5.41024
RightHand  -0.856587 1.76368 -14.03
LeftUpLeg  4.6193 -2.11756 -22.9517
LeftLeg  3.03123 25.6968 -9.06532
LeftFoot  -7.46449 -0.324053 10.8707
LeftToes  4.18335e-011 1.59304e-011 3.38507e-012
1412
root  3.67955 38.9075 5.73671 -102.828 -73.689 96.9954
RightUpLeg  -8.0865 3.6916 -34.4926
RightLeg  26.0073 -9.32003 -5.13316
RightFoot  -6.94225 -0.632229 15.1422
RightToes  -4.65663e-010 0 -3.6325e-017
Spine  1.72279 -5.01446 23.1066
Spine1  9.63241 -9.65106 13.9453
HEad  14.7237 14.4167 9.12799
LeftShoulder1  8.92942 -13.3787 -46.1316
LeftArm  14.4259 21.2424 -40.4572
LeftForeArm  24.3797 -29.0558 -4.95987
LeftHand  -0.244104 0.0205437 5.32207
RightShoulder  2.85227 4.78909 28.3872
RightArm  -13.7606 0.0356221 14.0111
RightForeArm  -3.58517 16.9128 5.38492
RightHand  -0.869842 1.85074 -14.0781
LeftUpLeg  4.404 -2.23141 -23.0823
LeftLeg  2.99749 26.1694 -9.05229
LeftFoot  -7.50795 -0.324791 11.0231
LeftToes  4.18335e-011 1.59304e-011 3.38507e-012
